# xmcd
#
# Track frame offsets:
#	197
#	14172
#	26272
#	39987
#	61547
#	76002
#	90910
#	109897
#	127417
#	147512
#	164717
#
# Disc length: 2446 seconds
#
# Revision: 4
# Processed by: cddbd v1.4PL0 Copyright (c) Steve Scherf et al.
# Submitted via: CDmax 2.0
#
DISCID=8b098c0b
DTITLE=Earl King - Sexual Telepathy
DYEAR=1990
DGENRE=Blues
TTITLE0=Old Mr. Bad Luck
TTITLE1=I'll Take You Back Home
TTITLE2=A Weary Silent Night
TTITLE3=Time For the Sun To Rise
TTITLE4=No One More For the Road
TTITLE5=Going Public
TTITLE6=Love Is the Way of Life
TTITLE7=Sexual Telepathy
TTITLE8=Happy Little Nobody's Waggy Tail Dog
TTITLE9=Always a First Time
TTITLE10=Make a Better World
EXTD=LABEL =Black Top Records\nID =CDBT1052\nUPC =011661-655225\nCOPYRIGHT
EXTD==1990
EXTT0=
EXTT1=
EXTT2=
EXTT3=
EXTT4=
EXTT5=
EXTT6=
EXTT7=
EXTT8=
EXTT9=
EXTT10=
PLAYORDER=
